<svg version="1" xmlns="http://www.w3.org/2000/svg" width="373.333" height="373.333" viewBox="0 0 280.000000 280.000000"><path d="M23.1 18.1l-2.1 2v239.6l2.1 1.9c1.8 1.6 3.9 1.8 17.7 1.9 14.5.1 15.9 0 17.9-1.9l2.3-2.1v-178l12.6 37c6.9 20.3 14.1 41.7 16 47.5 1.9 5.8 3.8 11.2 4.1 12 .3.8.7 1.9.9 2.5 2.4 9.2 27.2 79.5 28.5 81 1.7 1.7 3.3 1.9 15.9 2 12.9.1 14.2-.1 15.9-2 1.8-1.9 5.9-12.8 18.1-47.5 3.2-9.1 6.7-19 7.8-22 1.1-3 6.8-19 12.7-35.5 5.8-16.5 11-30.9 11.5-32 .5-1.1 3.9-10.7 7.6-21.3 3.7-10.6 7-18.8 7.3-18.3.3.5.6 39.9.5 87.6-.1 80.9 0 86.8 1.6 88.8 1.7 2 2.7 2.2 17.5 2.2 13.9.1 16.1-.2 18.1-1.8l2.4-1.8V140.1c0-114.4-.1-119.9-1.8-121.9-1.8-2-2.7-2.1-22.7-2.1-16.9.1-21.3.4-23.2 1.6-1.3.8-2.3 1.9-2.3 2.4 0 .8-41.9 118.3-44 123.4-1.8 4.4-16.3 45-22.2 62.2-1.2 3.5-2.3 6.2-2.4 6-.1-.1-2.7-7.6-5.7-16.7-3.1-9.1-10.6-31.1-16.7-49s-12.9-37.7-15-44C88.1 54.5 75.7 19.3 74.4 17.9c-1.4-1.6-4.2-1.7-25.4-1.8-22.3 0-23.9.1-25.9 2z"/></svg>